<svg id="svg" version="1.1" xmlns="http://www.w3.org/2000/svg" xmlns:xlink="http://www.w3.org/1999/xlink" width="400" height="400" viewBox="0, 0, 400,400"><g id="svgg"><path id="path0" d="M194.200 34.359 C 192.220 34.491,190.240 34.807,189.800 35.060 C 189.360 35.312,187.920 35.649,186.600 35.808 C 185.280 35.966,183.480 36.411,182.600 36.795 C 181.720 37.179,180.460 37.615,179.800 37.764 C 178.713 38.008,175.927 39.197,174.400 40.068 C 174.070 40.256,173.080 40.775,172.200 41.222 C 168.461 43.120,163.743 46.398,160.600 49.282 C 158.446 51.258,155.200 54.490,155.200 54.658 C 155.200 54.882,152.726 58.105,152.319 58.412 C 151.788 58.812,149.615 62.200,149.607 62.638 C 149.603 62.879,149.240 63.402,148.800 63.800 C 148.360 64.198,148.000 64.832,148.000 65.208 C 148.000 65.584,147.651 66.336,147.225 66.878 C 146.798 67.420,146.321 68.389,146.163 69.032 C 146.006 69.674,145.545 70.827,145.139 71.594 C 144.732 72.361,144.400 73.313,144.400 73.710 C 144.400 74.107,144.058 75.102,143.641 75.920 C 143.223 76.739,142.758 78.486,142.608 79.804 C 142.457 81.122,142.069 83.304,141.745 84.653 C 140.579 89.514,141.816 104.456,143.751 108.887 C 144.108 109.705,144.401 110.785,144.403 111.287 C 144.404 111.789,144.763 112.740,145.200 113.400 C 145.637 114.060,145.996 114.851,145.997 115.158 C 146.000 115.677,148.208 120.386,149.299 122.200 C 150.720 124.562,151.877 126.329,152.706 127.400 C 153.216 128.060,153.941 129.011,154.317 129.512 C 155.203 130.695,160.905 136.397,162.088 137.283 C 162.589 137.659,163.540 138.384,164.200 138.894 C 164.860 139.405,166.210 140.351,167.200 140.997 C 168.190 141.644,169.322 142.494,169.716 142.886 C 170.109 143.279,170.649 143.602,170.916 143.605 C 172.236 143.620,176.332 148.201,176.715 150.091 C 177.967 156.260,173.302 160.789,166.893 159.628 C 159.311 158.255,158.077 157.992,156.600 157.437 C 155.720 157.106,154.416 156.827,153.702 156.818 C 152.987 156.808,151.367 156.455,150.102 156.033 C 148.836 155.612,146.902 155.144,145.805 154.995 C 144.708 154.845,143.329 154.473,142.740 154.169 C 142.151 153.864,140.618 153.496,139.334 153.351 C 138.051 153.205,136.190 152.778,135.200 152.400 C 134.210 152.022,132.337 151.593,131.038 151.446 C 129.738 151.299,128.118 150.917,127.438 150.597 C 126.757 150.277,125.003 149.848,123.541 149.644 C 122.078 149.439,120.486 149.060,120.003 148.802 C 116.777 147.075,104.693 147.070,101.800 148.794 C 101.140 149.187,100.177 149.637,99.661 149.794 C 98.652 150.100,98.306 150.371,95.480 153.068 C 93.475 154.981,91.442 157.786,90.992 159.262 C 90.834 159.778,90.467 160.473,90.175 160.807 C 89.884 161.140,89.446 162.663,89.201 164.191 C 88.957 165.719,88.574 167.190,88.349 167.461 C 88.125 167.732,87.760 169.269,87.539 170.877 C 87.317 172.484,86.835 174.430,86.468 175.200 C 85.498 177.233,85.490 188.530,86.458 190.000 C 86.820 190.550,87.251 191.447,87.415 191.994 C 88.959 197.135,96.623 202.845,103.600 204.052 C 105.030 204.299,106.650 204.730,107.200 205.010 C 107.751 205.289,109.281 205.645,110.600 205.801 C 111.920 205.957,113.406 206.340,113.901 206.652 C 114.397 206.965,116.152 207.391,117.802 207.600 C 119.452 207.809,121.297 208.234,121.901 208.543 C 122.506 208.853,123.990 209.237,125.200 209.397 C 126.410 209.558,128.021 209.944,128.779 210.257 C 129.538 210.570,131.393 211.000,132.903 211.215 C 134.412 211.429,136.131 211.850,136.724 212.151 C 137.316 212.452,138.880 212.830,140.200 212.990 C 141.519 213.151,143.049 213.514,143.600 213.797 C 144.150 214.080,145.799 214.497,147.265 214.724 C 148.731 214.951,150.351 215.399,150.865 215.721 C 151.379 216.042,152.290 216.418,152.890 216.557 C 155.012 217.050,160.400 221.657,160.400 222.981 C 160.400 223.254,160.735 223.864,161.145 224.336 C 162.645 226.066,162.596 233.843,161.071 236.021 C 160.702 236.547,160.400 237.224,160.400 237.526 C 160.400 238.076,160.212 238.350,157.059 242.400 C 156.117 243.610,154.385 245.860,153.209 247.400 C 150.944 250.366,150.341 251.089,148.900 252.568 C 148.405 253.076,148.000 253.632,148.000 253.804 C 148.000 253.975,147.630 254.495,147.179 254.958 C 146.727 255.421,145.422 256.978,144.279 258.419 C 141.985 261.309,141.383 262.041,140.200 263.385 C 139.760 263.884,139.220 264.571,139.000 264.911 C 138.780 265.250,136.652 267.929,134.271 270.864 C 131.890 273.799,129.550 276.694,129.071 277.299 C 128.592 277.903,127.840 278.830,127.400 279.360 C 126.960 279.889,126.240 280.801,125.800 281.387 C 125.360 281.972,124.730 282.760,124.400 283.139 C 124.070 283.517,123.262 284.540,122.605 285.413 C 121.948 286.286,120.958 287.497,120.405 288.105 C 119.852 288.713,119.091 289.613,118.714 290.105 C 116.296 293.258,111.849 298.671,111.370 299.044 C 111.057 299.288,110.800 299.602,110.800 299.741 C 110.800 300.090,108.316 303.348,106.211 305.758 C 105.655 306.396,105.200 307.120,105.200 307.369 C 105.200 307.618,104.887 308.267,104.504 308.811 C 101.643 312.878,101.683 324.777,104.569 327.966 C 104.916 328.349,105.200 328.947,105.200 329.295 C 105.200 330.521,111.782 336.676,118.772 341.987 C 119.986 342.910,121.237 343.941,122.900 345.390 C 123.285 345.725,123.709 346.000,123.842 346.000 C 123.975 346.000,124.931 346.426,125.967 346.946 C 130.435 349.190,141.418 349.288,143.903 347.107 C 144.286 346.770,145.023 346.366,145.539 346.208 C 146.056 346.050,146.827 345.624,147.253 345.261 C 148.757 343.978,152.610 340.087,153.400 339.055 C 153.840 338.480,154.961 337.152,155.891 336.105 C 156.821 335.057,157.586 334.071,157.591 333.914 C 157.596 333.756,158.095 333.100,158.700 332.455 C 159.305 331.809,160.160 330.815,160.600 330.245 C 161.040 329.676,162.161 328.352,163.091 327.305 C 164.021 326.257,164.786 325.274,164.791 325.121 C 164.796 324.967,165.205 324.398,165.700 323.857 C 166.195 323.315,167.050 322.308,167.600 321.618 C 168.150 320.928,168.890 320.057,169.244 319.682 C 169.598 319.307,170.517 318.165,171.287 317.145 C 172.797 315.141,173.265 314.565,174.800 312.819 C 175.350 312.193,176.160 311.209,176.600 310.631 C 177.040 310.053,177.628 309.324,177.907 309.012 C 178.185 308.699,179.066 307.579,179.864 306.522 C 180.662 305.465,181.554 304.330,181.846 304.000 C 184.079 301.479,184.686 300.767,185.312 299.941 C 190.081 293.641,193.884 289.845,195.947 289.327 C 196.497 289.189,197.409 288.835,197.973 288.541 C 199.280 287.859,200.720 287.859,202.027 288.541 C 202.591 288.835,203.503 289.189,204.053 289.327 C 206.116 289.845,209.919 293.641,214.688 299.941 C 215.314 300.767,215.921 301.479,218.154 304.000 C 218.446 304.330,219.315 305.435,220.085 306.455 C 221.928 308.898,222.425 309.499,223.500 310.584 C 223.995 311.083,224.400 311.630,224.400 311.800 C 224.400 311.970,224.805 312.517,225.300 313.016 C 226.375 314.101,226.872 314.702,228.715 317.145 C 229.485 318.165,230.355 319.270,230.650 319.600 C 231.143 320.153,231.609 320.698,233.791 323.268 C 234.226 323.781,235.196 325.010,235.947 326.000 C 236.698 326.990,237.602 328.108,237.956 328.484 C 238.310 328.861,238.960 329.644,239.400 330.225 C 239.840 330.806,240.695 331.809,241.300 332.455 C 241.905 333.100,242.404 333.756,242.409 333.914 C 242.414 334.071,243.179 335.057,244.109 336.105 C 245.039 337.152,246.160 338.480,246.600 339.055 C 247.390 340.087,251.243 343.978,252.747 345.261 C 253.173 345.624,253.944 346.050,254.461 346.208 C 254.977 346.366,255.714 346.770,256.097 347.107 C 258.582 349.288,269.565 349.190,274.033 346.946 C 275.069 346.426,276.025 346.000,276.158 346.000 C 276.291 346.000,276.715 345.725,277.100 345.390 C 278.763 343.941,280.014 342.910,281.228 341.987 C 288.218 336.676,294.800 330.521,294.800 329.295 C 294.800 328.947,295.084 328.349,295.431 327.966 C 298.317 324.777,298.357 312.878,295.496 308.811 C 295.113 308.267,294.800 307.618,294.800 307.369 C 294.800 307.120,294.345 306.396,293.789 305.758 C 291.684 303.348,289.200 300.090,289.200 299.741 C 289.200 299.602,288.943 299.288,288.630 299.044 C 288.158 298.676,284.023 293.649,281.286 290.114 C 280.909 289.627,279.991 288.547,279.247 287.714 C 278.503 286.881,277.483 285.570,276.980 284.800 C 276.476 284.030,275.465 282.720,274.732 281.890 C 274.000 281.059,273.040 279.921,272.600 279.360 C 272.160 278.799,271.407 277.859,270.927 277.270 C 266.037 271.279,261.324 265.411,261.000 264.911 C 260.780 264.571,260.240 263.884,259.800 263.385 C 258.617 262.041,258.015 261.309,255.721 258.419 C 254.578 256.978,253.273 255.421,252.821 254.958 C 252.370 254.495,252.000 253.975,252.000 253.804 C 252.000 253.632,251.595 253.076,251.100 252.568 C 249.659 251.089,249.056 250.366,246.791 247.400 C 245.615 245.860,243.883 243.610,242.941 242.400 C 239.788 238.350,239.600 238.076,239.600 237.526 C 239.600 237.224,239.298 236.547,238.929 236.021 C 237.404 233.843,237.355 226.066,238.855 224.336 C 239.265 223.864,239.600 223.254,239.600 222.981 C 239.600 221.657,244.988 217.050,247.110 216.557 C 247.710 216.418,248.621 216.042,249.135 215.721 C 249.649 215.399,251.269 214.951,252.735 214.724 C 254.201 214.497,255.850 214.080,256.400 213.797 C 256.951 213.514,258.481 213.151,259.800 212.990 C 261.120 212.830,262.684 212.452,263.276 212.151 C 263.869 211.850,265.588 211.429,267.097 211.215 C 268.607 211.000,270.462 210.570,271.221 210.257 C 271.979 209.944,273.590 209.558,274.800 209.397 C 276.010 209.237,277.494 208.853,278.099 208.543 C 278.703 208.234,280.548 207.809,282.198 207.600 C 283.848 207.391,285.603 206.965,286.099 206.652 C 286.594 206.340,288.080 205.957,289.400 205.801 C 290.719 205.645,292.249 205.289,292.800 205.010 C 293.350 204.730,294.970 204.299,296.400 204.052 C 303.377 202.845,311.041 197.135,312.585 191.994 C 312.749 191.447,313.180 190.550,313.542 190.000 C 314.510 188.530,314.502 177.233,313.532 175.200 C 313.165 174.430,312.683 172.484,312.461 170.877 C 312.240 169.269,311.875 167.732,311.651 167.461 C 311.426 167.190,311.043 165.719,310.799 164.191 C 310.554 162.663,310.116 161.140,309.825 160.807 C 309.533 160.473,309.166 159.778,309.008 159.262 C 308.558 157.786,306.525 154.981,304.520 153.068 C 301.694 150.371,301.348 150.100,300.339 149.794 C 299.823 149.637,298.860 149.187,298.200 148.794 C 295.307 147.070,283.223 147.075,279.997 148.802 C 279.514 149.060,277.922 149.439,276.459 149.644 C 274.997 149.848,273.243 150.277,272.562 150.597 C 271.882 150.917,270.262 151.299,268.962 151.446 C 267.663 151.593,265.790 152.022,264.800 152.400 C 263.810 152.778,261.949 153.205,260.666 153.351 C 259.382 153.496,257.849 153.864,257.260 154.169 C 256.671 154.473,255.292 154.845,254.195 154.995 C 253.098 155.144,251.164 155.612,249.898 156.033 C 248.633 156.455,247.013 156.808,246.298 156.818 C 245.584 156.827,244.280 157.106,243.400 157.437 C 241.923 157.992,240.689 158.255,233.107 159.628 C 226.698 160.789,222.033 156.260,223.285 150.091 C 223.668 148.201,227.764 143.620,229.084 143.605 C 229.351 143.602,229.891 143.279,230.284 142.886 C 230.678 142.494,231.810 141.644,232.800 140.997 C 233.790 140.351,235.140 139.405,235.800 138.894 C 236.460 138.384,237.411 137.659,237.912 137.283 C 239.123 136.377,244.812 130.719,245.704 129.534 C 246.090 129.021,246.815 128.060,247.315 127.400 C 248.129 126.323,249.331 124.477,250.701 122.200 C 251.792 120.386,254.000 115.677,254.003 115.158 C 254.004 114.851,254.363 114.060,254.800 113.400 C 255.237 112.740,255.596 111.789,255.597 111.287 C 255.599 110.785,255.892 109.705,256.249 108.887 C 259.217 102.092,259.288 82.582,256.369 76.089 C 255.946 75.148,255.600 74.066,255.600 73.683 C 255.600 73.301,255.268 72.361,254.861 71.594 C 254.455 70.827,253.994 69.674,253.837 69.032 C 253.679 68.389,253.202 67.420,252.775 66.878 C 252.349 66.336,252.000 65.584,252.000 65.208 C 252.000 64.832,251.640 64.198,251.200 63.800 C 250.760 63.402,250.397 62.879,250.393 62.638 C 250.385 62.200,248.212 58.812,247.681 58.412 C 247.274 58.105,244.800 54.882,244.800 54.658 C 244.800 54.490,241.554 51.258,239.400 49.282 C 236.257 46.398,231.539 43.120,227.800 41.222 C 226.920 40.775,225.930 40.256,225.600 40.068 C 224.073 39.197,221.287 38.008,220.200 37.764 C 219.540 37.615,218.280 37.179,217.400 36.795 C 216.520 36.411,214.720 35.966,213.400 35.807 C 212.081 35.648,210.551 35.290,210.000 35.011 C 208.798 34.403,199.359 34.013,194.200 34.359 " stroke="none" fill="#fafafb" fill-rule="evenodd"></path><path id="path1" d="M0.000 200.000 L 0.000 400.000 200.000 400.000 L 400.000 400.000 400.000 200.000 L 400.000 0.000 200.000 0.000 L 0.000 0.000 0.000 200.000 M213.267 34.137 C 214.074 34.535,215.736 34.996,216.961 35.162 C 218.185 35.328,219.505 35.740,219.894 36.077 C 220.282 36.414,221.200 36.803,221.932 36.942 C 222.665 37.080,223.725 37.555,224.286 37.996 C 224.848 38.438,225.732 38.800,226.251 38.800 C 226.769 38.800,227.418 39.160,227.693 39.600 C 227.968 40.040,228.590 40.400,229.076 40.400 C 229.561 40.400,230.444 40.850,231.038 41.400 C 231.631 41.950,232.262 42.400,232.438 42.400 C 232.988 42.400,236.128 44.653,237.680 46.162 C 238.494 46.953,239.263 47.600,239.389 47.600 C 240.085 47.600,248.709 57.005,249.400 58.518 C 249.620 58.999,250.115 59.710,250.500 60.097 C 250.885 60.484,251.200 61.070,251.200 61.400 C 251.200 61.730,251.386 62.000,251.614 62.000 C 251.842 62.000,252.367 62.790,252.781 63.756 C 253.195 64.722,253.715 65.624,253.936 65.761 C 254.157 65.897,254.466 66.592,254.621 67.305 C 254.777 68.017,255.241 69.029,255.652 69.554 C 256.063 70.079,256.400 71.089,256.400 71.800 C 256.400 72.511,256.742 73.527,257.160 74.059 C 257.589 74.603,258.050 76.068,258.218 77.413 C 258.381 78.726,258.804 80.242,259.158 80.783 C 260.134 82.276,260.117 102.122,259.138 103.600 C 258.774 104.150,258.352 105.717,258.201 107.082 C 258.029 108.627,257.638 109.895,257.163 110.443 C 256.707 110.968,256.400 111.921,256.400 112.807 C 256.400 113.644,256.076 114.709,255.658 115.246 C 255.250 115.771,254.793 116.870,254.642 117.689 C 254.491 118.508,254.131 119.318,253.840 119.489 C 253.550 119.660,253.099 120.459,252.837 121.265 C 252.575 122.070,252.100 122.830,251.781 122.952 C 251.461 123.075,251.200 123.525,251.200 123.953 C 251.200 124.382,250.842 125.152,250.404 125.666 C 249.965 126.180,249.062 127.320,248.395 128.200 C 246.315 130.947,244.646 132.925,243.400 134.119 C 240.674 136.733,239.704 137.600,239.508 137.600 C 239.394 137.600,238.513 138.321,237.551 139.203 C 236.588 140.085,235.485 140.907,235.100 141.030 C 234.715 141.153,234.400 141.400,234.400 141.578 C 234.400 141.757,233.815 142.141,233.100 142.431 C 232.385 142.722,231.565 143.284,231.277 143.680 C 230.990 144.076,230.526 144.400,230.247 144.400 C 229.968 144.400,229.317 144.850,228.800 145.400 C 228.283 145.950,227.660 146.400,227.416 146.400 C 224.847 146.400,223.458 153.197,225.442 156.060 C 226.937 158.218,236.620 158.858,239.474 156.988 C 239.987 156.652,241.620 156.219,243.103 156.025 C 244.586 155.832,246.430 155.410,247.200 155.087 C 247.970 154.765,249.749 154.377,251.154 154.225 C 252.558 154.073,254.133 153.669,254.654 153.328 C 255.174 152.987,256.815 152.617,258.300 152.505 C 259.809 152.392,261.530 151.993,262.200 151.600 C 262.862 151.212,264.582 150.809,266.036 150.700 C 267.486 150.591,269.118 150.210,269.664 149.853 C 270.209 149.495,271.813 149.091,273.228 148.954 C 274.642 148.817,276.230 148.436,276.756 148.107 C 277.281 147.778,279.022 147.346,280.624 147.147 C 282.226 146.948,284.046 146.520,284.668 146.195 C 286.223 145.384,293.884 145.363,295.031 146.167 C 295.477 146.479,296.552 146.862,297.420 147.019 C 299.014 147.306,302.800 149.452,302.800 150.067 C 302.800 150.250,303.033 150.400,303.318 150.400 C 303.872 150.400,308.000 154.328,308.000 154.855 C 308.000 155.028,308.338 155.491,308.750 155.884 C 309.163 156.278,309.638 157.050,309.805 157.600 C 309.973 158.150,310.445 159.029,310.855 159.554 C 311.270 160.085,311.600 161.152,311.600 161.960 C 311.600 162.758,311.933 164.039,312.339 164.806 C 312.746 165.573,313.190 167.422,313.325 168.915 C 313.466 170.462,313.824 171.881,314.158 172.215 C 314.479 172.536,314.856 173.835,314.995 175.100 C 315.133 176.365,315.506 178.126,315.823 179.013 C 316.516 180.951,316.588 185.652,315.935 186.305 C 315.679 186.561,315.332 187.786,315.164 189.029 C 314.963 190.505,314.570 191.554,314.029 192.059 C 313.573 192.484,313.199 193.229,313.198 193.716 C 313.196 194.727,310.643 197.807,307.731 200.309 C 305.551 202.183,305.260 202.391,304.115 202.886 C 303.502 203.151,302.571 203.690,302.046 204.084 C 301.489 204.502,300.405 204.800,299.440 204.800 C 298.532 204.800,297.128 205.154,296.322 205.586 C 295.515 206.018,293.628 206.495,292.127 206.646 C 290.627 206.797,288.773 207.253,288.006 207.660 C 287.088 208.147,285.777 208.400,284.168 208.400 C 282.286 208.400,281.568 208.573,281.045 209.150 C 280.562 209.684,279.535 209.981,277.483 210.182 C 275.897 210.337,274.314 210.721,273.965 211.035 C 273.616 211.349,272.034 211.768,270.449 211.967 C 268.864 212.166,267.311 212.542,266.998 212.802 C 266.685 213.061,265.048 213.445,263.360 213.655 C 261.672 213.865,259.746 214.318,259.080 214.662 C 258.415 215.006,256.774 215.380,255.435 215.493 C 254.096 215.607,252.439 216.037,251.753 216.450 C 251.067 216.862,249.977 217.200,249.330 217.200 C 248.684 217.200,247.545 217.650,246.800 218.200 C 246.055 218.750,245.206 219.200,244.913 219.200 C 244.131 219.200,240.400 223.254,240.400 224.103 C 240.400 224.504,240.040 225.538,239.600 226.400 C 239.098 227.385,238.800 228.758,238.800 230.090 C 238.800 231.448,239.088 232.749,239.600 233.704 C 240.040 234.525,240.400 235.621,240.400 236.140 C 240.400 236.659,240.805 237.546,241.300 238.111 C 241.795 238.676,242.650 239.787,243.200 240.579 C 243.750 241.371,244.560 242.447,245.000 242.971 C 245.440 243.494,246.160 244.383,246.600 244.945 C 247.040 245.508,248.164 246.830,249.098 247.884 C 250.032 248.938,250.797 249.912,250.798 250.049 C 250.800 250.346,254.587 255.128,255.536 256.033 C 255.901 256.381,256.650 257.268,257.200 258.004 C 257.750 258.740,258.605 259.831,259.100 260.429 C 259.595 261.027,260.000 261.639,260.000 261.789 C 260.000 261.940,260.784 262.885,261.742 263.889 C 264.279 266.549,264.687 267.038,265.225 268.070 C 265.718 269.013,266.277 269.703,267.900 271.368 C 268.395 271.876,268.800 272.415,268.800 272.566 C 268.800 272.716,269.455 273.506,270.255 274.320 C 271.055 275.134,272.007 276.280,272.370 276.867 C 273.040 277.949,274.886 280.256,276.911 282.544 C 278.869 284.756,279.035 284.966,280.429 287.000 C 281.183 288.100,282.115 289.235,282.500 289.523 C 282.885 289.810,283.200 290.205,283.200 290.399 C 283.200 290.594,283.965 291.565,284.900 292.557 C 286.979 294.762,288.400 296.604,288.400 297.091 C 288.400 297.292,288.805 297.824,289.300 298.274 C 290.400 299.274,293.272 302.635,293.745 303.476 C 293.935 303.814,294.430 304.430,294.845 304.845 C 295.260 305.260,295.600 305.842,295.600 306.138 C 295.600 306.434,295.938 306.982,296.350 307.355 C 296.763 307.729,297.205 308.679,297.333 309.467 C 297.461 310.255,297.888 311.256,298.283 311.692 C 299.487 313.023,299.343 323.784,298.100 325.364 C 297.605 325.993,297.200 326.906,297.200 327.392 C 297.200 327.878,296.840 328.602,296.400 329.000 C 295.960 329.398,295.600 329.909,295.600 330.134 C 295.600 331.009,292.959 334.313,291.223 335.609 C 289.112 337.186,288.310 337.855,287.032 339.100 C 286.524 339.595,285.968 340.000,285.796 340.000 C 285.625 340.000,285.105 340.376,284.642 340.836 C 282.367 343.094,279.707 345.229,278.900 345.445 C 278.405 345.578,278.000 345.817,278.000 345.976 C 278.000 346.461,274.139 348.800,273.338 348.800 C 272.926 348.800,271.898 349.170,271.055 349.622 C 269.115 350.661,261.591 350.799,259.481 349.833 C 258.777 349.511,257.456 349.055,256.547 348.821 C 255.637 348.586,254.670 348.126,254.398 347.797 C 254.125 347.469,253.683 347.200,253.414 347.200 C 252.615 347.200,246.400 341.462,246.400 340.724 C 246.400 340.561,245.730 339.756,244.910 338.937 C 243.615 337.642,240.821 334.292,238.512 331.267 C 237.201 329.549,236.211 328.359,234.737 326.732 C 233.933 325.843,232.583 324.105,231.737 322.869 C 230.892 321.634,229.551 319.988,228.758 319.211 C 227.964 318.435,226.385 316.540,225.248 315.000 C 223.349 312.427,221.844 310.585,219.200 307.600 C 217.858 306.084,216.802 304.739,215.600 303.012 C 215.050 302.223,213.790 300.704,212.800 299.638 C 211.810 298.573,210.460 297.031,209.800 296.212 C 205.673 291.092,204.218 290.200,200.000 290.200 C 195.782 290.200,194.327 291.092,190.200 296.212 C 189.540 297.031,188.190 298.573,187.200 299.638 C 186.210 300.704,184.950 302.223,184.400 303.012 C 183.220 304.708,182.172 306.046,180.800 307.612 C 177.949 310.865,176.655 312.449,174.762 315.000 C 173.620 316.540,172.036 318.435,171.242 319.211 C 170.449 319.988,169.108 321.634,168.263 322.869 C 167.417 324.105,166.067 325.843,165.263 326.732 C 163.789 328.359,162.799 329.549,161.488 331.267 C 159.179 334.292,156.385 337.642,155.090 338.937 C 154.270 339.756,153.600 340.561,153.600 340.724 C 153.600 341.462,147.385 347.200,146.586 347.200 C 146.317 347.200,145.875 347.469,145.602 347.797 C 145.330 348.126,144.363 348.586,143.453 348.821 C 142.544 349.055,141.223 349.511,140.519 349.833 C 138.409 350.799,130.885 350.661,128.945 349.622 C 128.102 349.170,127.074 348.800,126.662 348.800 C 125.861 348.800,122.000 346.461,122.000 345.976 C 122.000 345.817,121.595 345.578,121.100 345.445 C 120.605 345.312,119.300 344.402,118.200 343.423 C 116.156 341.604,115.117 340.714,113.000 338.972 C 112.340 338.429,111.530 337.757,111.200 337.478 C 110.870 337.199,109.779 336.358,108.777 335.609 C 107.041 334.313,104.400 331.009,104.400 330.134 C 104.400 329.909,104.040 329.398,103.600 329.000 C 103.160 328.602,102.800 327.878,102.800 327.392 C 102.800 326.906,102.395 325.993,101.900 325.364 C 100.657 323.784,100.513 313.023,101.717 311.692 C 102.112 311.256,102.539 310.255,102.667 309.467 C 102.795 308.679,103.237 307.729,103.650 307.355 C 104.062 306.982,104.400 306.434,104.400 306.138 C 104.400 305.842,104.740 305.260,105.155 304.845 C 105.570 304.430,106.065 303.814,106.255 303.476 C 106.728 302.635,109.600 299.274,110.700 298.274 C 111.195 297.824,111.600 297.292,111.600 297.091 C 111.600 296.604,113.021 294.762,115.100 292.557 C 116.035 291.565,116.800 290.594,116.800 290.399 C 116.800 290.205,117.115 289.810,117.500 289.523 C 117.885 289.235,118.817 288.100,119.571 287.000 C 120.965 284.966,121.131 284.756,123.089 282.544 C 125.114 280.256,126.960 277.949,127.630 276.867 C 127.993 276.280,128.945 275.134,129.745 274.320 C 130.545 273.506,131.200 272.716,131.200 272.566 C 131.200 272.415,131.605 271.876,132.100 271.368 C 133.723 269.703,134.282 269.013,134.775 268.070 C 135.313 267.038,135.721 266.549,138.258 263.889 C 139.216 262.885,140.000 261.940,140.000 261.789 C 140.000 261.639,140.405 261.027,140.900 260.429 C 141.395 259.831,142.250 258.740,142.800 258.004 C 143.350 257.268,144.099 256.381,144.464 256.033 C 145.413 255.128,149.200 250.346,149.202 250.049 C 149.203 249.912,149.968 248.938,150.902 247.884 C 151.836 246.830,152.960 245.508,153.400 244.945 C 153.840 244.383,154.560 243.494,155.000 242.971 C 155.440 242.447,156.250 241.371,156.800 240.579 C 157.350 239.787,158.205 238.676,158.700 238.111 C 159.195 237.546,159.600 236.659,159.600 236.140 C 159.600 235.621,159.960 234.525,160.400 233.704 C 160.912 232.749,161.200 231.448,161.200 230.090 C 161.200 228.758,160.902 227.385,160.400 226.400 C 159.960 225.538,159.600 224.504,159.600 224.103 C 159.600 223.254,155.869 219.200,155.087 219.200 C 154.794 219.200,153.945 218.750,153.200 218.200 C 152.455 217.650,151.316 217.200,150.670 217.200 C 150.023 217.200,148.933 216.862,148.247 216.450 C 147.561 216.037,145.904 215.607,144.565 215.493 C 143.226 215.380,141.585 215.006,140.920 214.662 C 140.254 214.318,138.328 213.865,136.640 213.655 C 134.952 213.445,133.315 213.061,133.002 212.802 C 132.689 212.542,131.136 212.166,129.551 211.967 C 127.966 211.768,126.384 211.349,126.035 211.035 C 125.686 210.721,124.103 210.337,122.517 210.182 C 120.465 209.981,119.438 209.684,118.955 209.150 C 118.432 208.573,117.714 208.400,115.832 208.400 C 114.223 208.400,112.912 208.147,111.994 207.660 C 111.227 207.253,109.373 206.797,107.873 206.646 C 106.372 206.495,104.485 206.018,103.678 205.586 C 102.872 205.154,101.468 204.800,100.560 204.800 C 99.595 204.800,98.511 204.502,97.954 204.084 C 97.429 203.690,96.498 203.151,95.885 202.886 C 94.740 202.391,94.449 202.183,92.269 200.309 C 89.357 197.807,86.804 194.727,86.802 193.716 C 86.801 193.229,86.427 192.484,85.971 192.059 C 85.430 191.554,85.037 190.505,84.836 189.029 C 84.668 187.786,84.321 186.561,84.065 186.305 C 83.421 185.661,83.479 180.796,84.149 179.149 C 84.451 178.407,84.825 176.630,84.980 175.200 C 85.134 173.770,85.533 172.298,85.865 171.930 C 86.201 171.558,86.570 170.133,86.695 168.730 C 86.818 167.338,87.252 165.573,87.659 164.806 C 88.067 164.039,88.400 162.758,88.400 161.960 C 88.400 161.152,88.730 160.085,89.145 159.554 C 89.555 159.029,90.027 158.150,90.195 157.600 C 90.362 157.050,90.837 156.278,91.250 155.884 C 91.662 155.491,92.000 155.028,92.000 154.855 C 92.000 154.328,96.128 150.400,96.682 150.400 C 96.967 150.400,97.200 150.250,97.200 150.067 C 97.200 149.452,100.986 147.306,102.580 147.019 C 103.448 146.862,104.523 146.479,104.969 146.167 C 106.116 145.363,113.777 145.384,115.332 146.195 C 115.954 146.520,117.774 146.948,119.376 147.147 C 120.978 147.346,122.719 147.778,123.244 148.107 C 123.770 148.436,125.358 148.817,126.772 148.954 C 128.187 149.091,129.791 149.495,130.336 149.853 C 130.882 150.210,132.514 150.591,133.964 150.700 C 135.418 150.809,137.138 151.212,137.800 151.600 C 138.470 151.993,140.191 152.392,141.700 152.505 C 143.185 152.617,144.826 152.987,145.346 153.328 C 145.867 153.669,147.442 154.073,148.846 154.225 C 150.251 154.377,152.030 154.765,152.800 155.087 C 153.570 155.410,155.414 155.832,156.897 156.025 C 158.380 156.219,160.013 156.652,160.526 156.988 C 163.380 158.858,173.063 158.218,174.558 156.060 C 176.542 153.197,175.153 146.400,172.584 146.400 C 172.340 146.400,171.717 145.950,171.200 145.400 C 170.683 144.850,170.032 144.400,169.753 144.400 C 169.474 144.400,169.010 144.076,168.723 143.680 C 168.435 143.284,167.615 142.722,166.900 142.431 C 166.185 142.141,165.600 141.757,165.600 141.578 C 165.600 141.400,165.285 141.153,164.900 141.030 C 164.515 140.907,163.412 140.085,162.449 139.203 C 161.487 138.321,160.606 137.600,160.492 137.600 C 160.296 137.600,159.326 136.733,156.600 134.119 C 155.354 132.925,153.685 130.947,151.605 128.200 C 150.938 127.320,150.035 126.180,149.596 125.666 C 149.158 125.152,148.800 124.382,148.800 123.953 C 148.800 123.525,148.539 123.075,148.219 122.952 C 147.900 122.830,147.425 122.070,147.163 121.265 C 146.901 120.459,146.450 119.660,146.160 119.489 C 145.869 119.318,145.509 118.508,145.358 117.689 C 145.207 116.870,144.750 115.771,144.342 115.246 C 143.924 114.709,143.600 113.644,143.600 112.807 C 143.600 111.921,143.293 110.968,142.837 110.443 C 142.368 109.902,141.964 108.611,141.787 107.092 C 141.630 105.732,141.208 104.174,140.850 103.628 C 139.883 102.151,139.876 82.262,140.842 80.783 C 141.196 80.242,141.619 78.726,141.782 77.413 C 141.950 76.068,142.411 74.603,142.840 74.059 C 143.258 73.527,143.600 72.511,143.600 71.800 C 143.600 71.089,143.937 70.079,144.348 69.554 C 144.759 69.029,145.223 68.017,145.379 67.305 C 145.534 66.592,145.843 65.897,146.064 65.761 C 146.285 65.624,146.805 64.722,147.219 63.756 C 147.633 62.790,148.158 62.000,148.386 62.000 C 148.614 62.000,148.800 61.730,148.800 61.400 C 148.800 61.070,149.115 60.484,149.500 60.097 C 149.885 59.710,150.380 58.999,150.600 58.518 C 151.304 56.977,159.893 47.600,160.601 47.600 C 160.732 47.600,161.506 46.953,162.320 46.162 C 163.872 44.653,167.012 42.400,167.562 42.400 C 167.738 42.400,168.369 41.950,168.962 41.400 C 169.556 40.850,170.439 40.400,170.924 40.400 C 171.410 40.400,172.032 40.040,172.307 39.600 C 172.582 39.160,173.231 38.800,173.749 38.800 C 174.268 38.800,175.152 38.438,175.714 37.996 C 176.275 37.555,177.335 37.075,178.068 36.930 C 178.800 36.785,179.850 36.355,180.400 35.974 C 180.950 35.592,182.364 35.179,183.542 35.054 C 184.721 34.930,185.916 34.635,186.200 34.400 C 187.892 32.995,210.507 32.775,213.267 34.137 " stroke="none" fill="#630b83" fill-rule="evenodd"></path><path id="path2" d="M192.800 33.945 C 190.930 34.095,189.195 34.347,188.944 34.505 C 188.694 34.663,187.164 35.068,185.544 35.406 C 182.665 36.006,179.814 36.962,176.600 38.404 C 175.720 38.799,174.550 39.322,174.000 39.566 C 172.488 40.237,168.733 42.448,166.160 44.182 C 160.718 47.849,153.659 55.034,150.226 60.400 C 149.593 61.390,148.788 62.651,148.437 63.202 C 147.016 65.437,144.000 72.090,144.000 72.991 C 144.000 73.344,143.640 74.338,143.200 75.200 C 142.760 76.062,142.400 77.156,142.400 77.629 C 142.400 78.103,142.007 80.045,141.528 81.945 C 139.765 88.924,140.960 106.148,143.459 109.789 C 143.756 110.223,144.006 111.033,144.013 111.589 C 144.019 112.145,144.468 113.500,145.009 114.600 C 145.550 115.700,145.994 116.806,145.996 117.057 C 146.000 117.542,149.134 123.252,150.685 125.600 C 154.628 131.569,160.277 137.081,167.200 141.713 C 175.853 147.503,176.799 148.742,176.205 153.500 C 175.503 159.117,169.238 160.407,158.038 157.239 C 156.587 156.829,154.410 156.282,153.200 156.024 C 146.928 154.687,144.489 154.102,144.048 153.830 C 143.781 153.665,142.176 153.289,140.481 152.996 C 138.787 152.702,136.680 152.186,135.800 151.849 C 134.920 151.511,133.638 151.227,132.952 151.218 C 132.266 151.208,130.622 150.854,129.298 150.431 C 127.975 150.009,126.017 149.535,124.946 149.379 C 123.876 149.223,122.370 148.855,121.600 148.562 C 116.846 146.753,109.536 146.130,105.148 147.160 C 97.471 148.962,90.106 156.041,88.985 162.695 C 88.845 163.523,88.386 165.236,87.965 166.502 C 87.544 167.767,87.200 169.257,87.200 169.812 C 87.200 170.366,86.847 171.825,86.415 173.054 C 81.350 187.463,88.610 201.432,102.800 204.581 C 104.230 204.898,106.120 205.342,107.000 205.567 C 110.588 206.483,113.911 207.268,115.800 207.646 C 116.900 207.866,118.880 208.395,120.200 208.823 C 121.520 209.250,122.960 209.598,123.400 209.594 C 123.840 209.591,125.370 209.939,126.800 210.368 C 130.145 211.371,135.987 212.773,138.800 213.248 C 140.010 213.452,141.630 213.861,142.400 214.157 C 143.170 214.453,144.700 214.819,145.800 214.970 C 149.892 215.533,155.349 218.069,157.830 220.562 C 161.470 224.219,162.904 231.170,160.820 235.058 C 160.369 235.900,160.000 236.832,160.000 237.131 C 160.000 237.739,160.091 237.614,153.806 245.600 C 151.296 248.790,148.917 251.830,148.521 252.356 C 148.124 252.882,147.427 253.692,146.971 254.156 C 146.515 254.620,145.173 256.260,143.990 257.800 C 142.806 259.340,138.712 264.470,134.891 269.200 C 126.254 279.893,126.515 279.573,124.671 281.748 C 123.831 282.740,122.211 284.800,121.071 286.327 C 119.932 287.853,118.247 289.979,117.327 291.051 C 113.179 295.885,106.089 304.938,104.984 306.810 C 104.756 307.198,104.369 307.759,104.126 308.057 C 103.882 308.356,103.214 309.964,102.641 311.630 C 99.612 320.446,102.889 330.004,111.200 336.593 C 111.750 337.029,114.180 339.009,116.600 340.993 C 120.656 344.317,122.189 345.436,125.370 347.391 C 130.063 350.276,139.347 350.174,145.048 347.175 C 147.572 345.847,147.884 345.607,150.546 342.951 C 152.710 340.793,152.937 340.535,156.316 336.400 C 157.484 334.970,158.836 333.318,159.320 332.730 C 159.804 332.141,160.560 331.189,161.000 330.614 C 161.440 330.039,162.084 329.261,162.431 328.884 C 163.477 327.751,166.945 323.440,167.800 322.211 C 168.240 321.578,168.971 320.687,169.423 320.230 C 170.211 319.437,173.627 315.242,175.101 313.259 C 175.485 312.742,176.300 311.752,176.911 311.059 C 177.523 310.367,178.259 309.530,178.547 309.200 C 178.835 308.870,180.032 307.340,181.206 305.800 C 182.381 304.260,183.715 302.612,184.171 302.138 C 185.246 301.020,185.832 300.318,187.935 297.630 C 197.013 286.031,202.932 286.027,212.065 297.615 C 214.060 300.146,215.134 301.427,216.037 302.349 C 216.387 302.707,217.626 304.260,218.790 305.800 C 219.954 307.340,221.107 308.780,221.353 309.000 C 221.862 309.455,223.856 311.849,224.899 313.256 C 226.344 315.205,229.784 319.431,230.577 320.230 C 231.029 320.687,231.760 321.578,232.200 322.211 C 233.055 323.440,236.523 327.751,237.569 328.884 C 237.916 329.261,238.560 330.039,239.000 330.614 C 239.440 331.189,240.196 332.141,240.680 332.730 C 241.164 333.318,242.516 334.970,243.684 336.400 C 247.063 340.535,247.290 340.793,249.454 342.951 C 252.116 345.607,252.428 345.847,254.952 347.175 C 260.653 350.174,269.937 350.276,274.630 347.391 C 277.811 345.436,279.344 344.317,283.400 340.993 C 285.820 339.009,288.250 337.029,288.800 336.593 C 297.111 330.004,300.388 320.446,297.359 311.630 C 296.786 309.964,296.118 308.356,295.874 308.057 C 295.631 307.759,295.244 307.198,295.016 306.810 C 293.911 304.938,286.821 295.885,282.673 291.051 C 281.753 289.979,280.068 287.853,278.929 286.327 C 277.789 284.800,276.169 282.740,275.329 281.748 C 273.485 279.573,273.746 279.893,265.109 269.200 C 261.288 264.470,257.194 259.340,256.010 257.800 C 254.827 256.260,253.485 254.620,253.029 254.156 C 252.573 253.692,251.876 252.882,251.479 252.356 C 251.083 251.830,248.704 248.790,246.194 245.600 C 239.909 237.614,240.000 237.739,240.000 237.131 C 240.000 236.832,239.631 235.900,239.180 235.058 C 234.893 227.059,242.755 216.544,254.200 214.970 C 255.300 214.819,256.830 214.453,257.600 214.157 C 258.370 213.861,259.990 213.452,261.200 213.248 C 263.999 212.775,269.864 211.356,273.108 210.366 C 274.488 209.945,276.018 209.600,276.508 209.600 C 276.999 209.600,278.480 209.250,279.800 208.823 C 281.120 208.395,283.100 207.866,284.200 207.646 C 286.089 207.268,289.412 206.483,293.000 205.567 C 293.880 205.342,295.770 204.898,297.200 204.581 C 311.343 201.442,318.963 186.806,313.573 173.132 C 313.148 172.053,312.800 170.638,312.800 169.987 C 312.800 169.336,312.456 167.767,312.035 166.502 C 311.614 165.236,311.155 163.523,311.015 162.695 C 309.894 156.041,302.529 148.962,294.852 147.160 C 290.464 146.130,283.154 146.753,278.400 148.562 C 277.630 148.855,276.124 149.223,275.054 149.379 C 273.983 149.535,272.025 150.009,270.702 150.431 C 269.378 150.854,267.734 151.208,267.048 151.218 C 266.362 151.227,265.080 151.511,264.200 151.849 C 263.320 152.186,261.213 152.702,259.519 152.996 C 257.824 153.289,256.219 153.665,255.952 153.830 C 255.511 154.102,253.072 154.687,246.800 156.024 C 245.590 156.282,243.413 156.829,241.962 157.239 C 230.762 160.407,224.497 159.117,223.795 153.500 C 223.201 148.742,224.147 147.503,232.800 141.713 C 239.723 137.081,245.372 131.569,249.315 125.600 C 250.866 123.252,254.000 117.542,254.004 117.057 C 254.006 116.806,254.450 115.700,254.991 114.600 C 255.532 113.500,255.981 112.145,255.987 111.589 C 255.994 111.033,256.244 110.223,256.541 109.789 C 259.026 106.168,260.211 88.976,258.460 81.945 C 257.987 80.045,257.600 78.103,257.600 77.629 C 257.600 77.156,257.240 76.062,256.800 75.200 C 256.360 74.338,256.000 73.344,256.000 72.991 C 256.000 72.090,252.984 65.437,251.563 63.202 C 251.212 62.651,250.407 61.390,249.774 60.400 C 246.341 55.034,239.282 47.849,233.840 44.182 C 231.267 42.448,227.512 40.237,226.000 39.566 C 225.450 39.322,224.280 38.799,223.400 38.404 C 220.221 36.977,217.347 36.008,214.591 35.434 C 213.046 35.112,211.309 34.670,210.733 34.450 C 209.377 33.935,197.203 33.592,192.800 33.945 M210.000 35.011 C 210.551 35.290,212.081 35.648,213.400 35.807 C 214.720 35.966,216.520 36.411,217.400 36.795 C 218.280 37.179,219.540 37.615,220.200 37.764 C 221.287 38.008,224.073 39.197,225.600 40.068 C 225.930 40.256,226.920 40.775,227.800 41.222 C 231.539 43.120,236.257 46.398,239.400 49.282 C 241.554 51.258,244.800 54.490,244.800 54.658 C 244.800 54.882,247.274 58.105,247.681 58.412 C 248.212 58.812,250.385 62.200,250.393 62.638 C 250.397 62.879,250.760 63.402,251.200 63.800 C 251.640 64.198,252.000 64.832,252.000 65.208 C 252.000 65.584,252.349 66.336,252.775 66.878 C 253.202 67.420,253.679 68.389,253.837 69.032 C 253.994 69.674,254.455 70.827,254.861 71.594 C 255.268 72.361,255.600 73.301,255.600 73.683 C 255.600 74.066,255.946 75.148,256.369 76.089 C 259.288 82.582,259.217 102.092,256.249 108.887 C 255.892 109.705,255.599 110.785,255.597 111.287 C 255.596 111.789,255.237 112.740,254.800 113.400 C 254.363 114.060,254.004 114.851,254.003 115.158 C 254.000 115.677,251.792 120.386,250.701 122.200 C 249.331 124.477,248.129 126.323,247.315 127.400 C 246.815 128.060,246.090 129.021,245.704 129.534 C 244.812 130.719,239.123 136.377,237.912 137.283 C 237.411 137.659,236.460 138.384,235.800 138.894 C 235.140 139.405,233.790 140.351,232.800 140.997 C 231.810 141.644,230.678 142.494,230.284 142.886 C 229.891 143.279,229.351 143.602,229.084 143.605 C 227.764 143.620,223.668 148.201,223.285 150.091 C 222.033 156.260,226.698 160.789,233.107 159.628 C 240.689 158.255,241.923 157.992,243.400 157.437 C 244.280 157.106,245.584 156.827,246.298 156.818 C 247.013 156.808,248.633 156.455,249.898 156.033 C 251.164 155.612,253.098 155.144,254.195 154.995 C 255.292 154.845,256.671 154.473,257.260 154.169 C 257.849 153.864,259.382 153.496,260.666 153.351 C 261.949 153.205,263.810 152.778,264.800 152.400 C 265.790 152.022,267.663 151.593,268.962 151.446 C 270.262 151.299,271.882 150.917,272.562 150.597 C 273.243 150.277,274.997 149.848,276.459 149.644 C 277.922 149.439,279.514 149.060,279.997 148.802 C 283.223 147.075,295.307 147.070,298.200 148.794 C 298.860 149.187,299.823 149.637,300.339 149.794 C 301.348 150.100,301.694 150.371,304.520 153.068 C 306.525 154.981,308.558 157.786,309.008 159.262 C 309.166 159.778,309.533 160.473,309.825 160.807 C 310.116 161.140,310.554 162.663,310.799 164.191 C 311.043 165.719,311.426 167.190,311.651 167.461 C 311.875 167.732,312.240 169.269,312.461 170.877 C 312.683 172.484,313.165 174.430,313.532 175.200 C 314.502 177.233,314.510 188.530,313.542 190.000 C 313.180 190.550,312.749 191.447,312.585 191.994 C 311.041 197.135,303.377 202.845,296.400 204.052 C 294.970 204.299,293.350 204.730,292.800 205.010 C 292.249 205.289,290.719 205.645,289.400 205.801 C 288.080 205.957,286.594 206.340,286.099 206.652 C 285.603 206.965,283.848 207.391,282.198 207.600 C 280.548 207.809,278.703 208.234,278.099 208.543 C 277.494 208.853,276.010 209.237,274.800 209.397 C 273.590 209.558,271.979 209.944,271.221 210.257 C 270.462 210.570,268.607 211.000,267.097 211.215 C 265.588 211.429,263.869 211.850,263.276 212.151 C 262.684 212.452,261.120 212.830,259.800 212.990 C 258.481 213.151,256.951 213.514,256.400 213.797 C 255.850 214.080,254.201 214.497,252.735 214.724 C 251.269 214.951,249.649 215.399,249.135 215.721 C 248.621 216.042,247.710 216.418,247.110 216.557 C 244.988 217.050,239.600 221.657,239.600 222.981 C 239.600 223.254,239.265 223.864,238.855 224.336 C 237.355 226.066,237.404 233.843,238.929 236.021 C 239.298 236.547,239.600 237.224,239.600 237.526 C 239.600 238.076,239.788 238.350,242.941 242.400 C 243.883 243.610,245.615 245.860,246.791 247.400 C 249.056 250.366,249.659 251.089,251.100 252.568 C 251.595 253.076,252.000 253.632,252.000 253.804 C 252.000 253.975,252.370 254.495,252.821 254.958 C 253.273 255.421,254.578 256.978,255.721 258.419 C 258.015 261.309,258.617 262.041,259.800 263.385 C 260.240 263.884,260.780 264.571,261.000 264.911 C 261.324 265.411,266.037 271.279,270.927 277.270 C 271.407 277.859,272.160 278.799,272.600 279.360 C 273.040 279.921,274.000 281.059,274.732 281.890 C 275.465 282.720,276.476 284.030,276.980 284.800 C 277.483 285.570,278.503 286.881,279.247 287.714 C 279.991 288.547,280.909 289.627,281.286 290.114 C 284.023 293.649,288.158 298.676,288.630 299.044 C 288.943 299.288,289.200 299.602,289.200 299.741 C 289.200 300.090,291.684 303.348,293.789 305.758 C 294.345 306.396,294.800 307.120,294.800 307.369 C 294.800 307.618,295.113 308.267,295.496 308.811 C 298.357 312.878,298.317 324.777,295.431 327.966 C 295.084 328.349,294.800 328.947,294.800 329.295 C 294.800 330.521,288.218 336.676,281.228 341.987 C 280.014 342.910,278.763 343.941,277.100 345.390 C 276.715 345.725,276.291 346.000,276.158 346.000 C 276.025 346.000,275.069 346.426,274.033 346.946 C 269.565 349.190,258.582 349.288,256.097 347.107 C 255.714 346.770,254.977 346.366,254.461 346.208 C 253.944 346.050,253.173 345.624,252.747 345.261 C 251.243 343.978,247.390 340.087,246.600 339.055 C 246.160 338.480,245.039 337.152,244.109 336.105 C 243.179 335.057,242.414 334.071,242.409 333.914 C 242.404 333.756,241.905 333.100,241.300 332.455 C 240.695 331.809,239.840 330.806,239.400 330.225 C 238.960 329.644,238.310 328.861,237.956 328.484 C 237.602 328.108,236.698 326.990,235.947 326.000 C 235.196 325.010,234.226 323.781,233.791 323.268 C 231.609 320.698,231.143 320.153,230.650 319.600 C 230.355 319.270,229.485 318.165,228.715 317.145 C 226.872 314.702,226.375 314.101,225.300 313.016 C 224.805 312.517,224.400 311.970,224.400 311.800 C 224.400 311.630,223.995 311.083,223.500 310.584 C 222.425 309.499,221.928 308.898,220.085 306.455 C 219.315 305.435,218.446 304.330,218.154 304.000 C 215.921 301.479,215.314 300.767,214.688 299.941 C 209.919 293.641,206.116 289.845,204.053 289.327 C 203.503 289.189,202.591 288.835,202.027 288.541 C 200.720 287.859,199.280 287.859,197.973 288.541 C 197.409 288.835,196.497 289.189,195.947 289.327 C 193.884 289.845,190.081 293.641,185.312 299.941 C 184.686 300.767,184.079 301.479,181.846 304.000 C 181.554 304.330,180.662 305.465,179.864 306.522 C 179.066 307.579,178.185 308.699,177.907 309.012 C 177.628 309.324,177.040 310.053,176.600 310.631 C 176.160 311.209,175.350 312.193,174.800 312.819 C 173.265 314.565,172.797 315.141,171.287 317.145 C 170.517 318.165,169.598 319.307,169.244 319.682 C 168.890 320.057,168.150 320.928,167.600 321.618 C 167.050 322.308,166.195 323.315,165.700 323.857 C 165.205 324.398,164.796 324.967,164.791 325.121 C 164.786 325.274,164.021 326.257,163.091 327.305 C 162.161 328.352,161.040 329.676,160.600 330.245 C 160.160 330.815,159.305 331.809,158.700 332.455 C 158.095 333.100,157.596 333.756,157.591 333.914 C 157.586 334.071,156.821 335.057,155.891 336.105 C 154.961 337.152,153.840 338.480,153.400 339.055 C 152.610 340.087,148.757 343.978,147.253 345.261 C 146.827 345.624,146.056 346.050,145.539 346.208 C 145.023 346.366,144.286 346.770,143.903 347.107 C 141.418 349.288,130.435 349.190,125.967 346.946 C 124.931 346.426,123.975 346.000,123.842 346.000 C 123.709 346.000,123.285 345.725,122.900 345.390 C 121.237 343.941,119.986 342.910,118.772 341.987 C 111.782 336.676,105.200 330.521,105.200 329.295 C 105.200 328.947,104.916 328.349,104.569 327.966 C 101.683 324.777,101.643 312.878,104.504 308.811 C 104.887 308.267,105.200 307.618,105.200 307.369 C 105.200 307.120,105.655 306.396,106.211 305.758 C 108.316 303.348,110.800 300.090,110.800 299.741 C 110.800 299.602,111.057 299.288,111.370 299.044 C 111.849 298.671,116.296 293.258,118.714 290.105 C 119.091 289.613,119.852 288.713,120.405 288.105 C 120.958 287.497,121.948 286.286,122.605 285.413 C 123.262 284.540,124.070 283.517,124.400 283.139 C 124.730 282.760,125.360 281.972,125.800 281.387 C 126.240 280.801,126.960 279.889,127.400 279.360 C 127.840 278.830,128.592 277.903,129.071 277.299 C 129.550 276.694,131.890 273.799,134.271 270.864 C 136.652 267.929,138.780 265.250,139.000 264.911 C 139.220 264.571,139.760 263.884,140.200 263.385 C 141.383 262.041,141.985 261.309,144.279 258.419 C 145.422 256.978,146.727 255.421,147.179 254.958 C 147.630 254.495,148.000 253.975,148.000 253.804 C 148.000 253.632,148.405 253.076,148.900 252.568 C 150.341 251.089,150.944 250.366,153.209 247.400 C 154.385 245.860,156.117 243.610,157.059 242.400 C 160.212 238.350,160.400 238.076,160.400 237.526 C 160.400 237.224,160.702 236.547,161.071 236.021 C 162.596 233.843,162.645 226.066,161.145 224.336 C 160.735 223.864,160.400 223.254,160.400 222.981 C 160.400 221.657,155.012 217.050,152.890 216.557 C 152.290 216.418,151.379 216.042,150.865 215.721 C 150.351 215.399,148.731 214.951,147.265 214.724 C 145.799 214.497,144.150 214.080,143.600 213.797 C 143.049 213.514,141.519 213.151,140.200 212.990 C 138.880 212.830,137.316 212.452,136.724 212.151 C 136.131 211.850,134.412 211.429,132.903 211.215 C 131.393 211.000,129.538 210.570,128.779 210.257 C 128.021 209.944,126.410 209.558,125.200 209.397 C 123.990 209.237,122.506 208.853,121.901 208.543 C 121.297 208.234,119.452 207.809,117.802 207.600 C 116.152 207.391,114.397 206.965,113.901 206.652 C 113.406 206.340,111.920 205.957,110.600 205.801 C 109.281 205.645,107.751 205.289,107.200 205.010 C 106.650 204.730,105.030 204.299,103.600 204.052 C 96.623 202.845,88.959 197.135,87.415 191.994 C 87.251 191.447,86.820 190.550,86.458 190.000 C 85.490 188.530,85.498 177.233,86.468 175.200 C 86.835 174.430,87.317 172.484,87.539 170.877 C 87.760 169.269,88.125 167.732,88.349 167.461 C 88.574 167.190,88.957 165.719,89.201 164.191 C 89.446 162.663,89.884 161.140,90.175 160.807 C 90.467 160.473,90.834 159.778,90.992 159.262 C 91.442 157.786,93.475 154.981,95.480 153.068 C 98.306 150.371,98.652 150.100,99.661 149.794 C 100.177 149.637,101.140 149.187,101.800 148.794 C 104.693 147.070,116.777 147.075,120.003 148.802 C 120.486 149.060,122.078 149.439,123.541 149.644 C 125.003 149.848,126.757 150.277,127.438 150.597 C 128.118 150.917,129.738 151.299,131.038 151.446 C 132.337 151.593,134.210 152.022,135.200 152.400 C 136.190 152.778,138.051 153.205,139.334 153.351 C 140.618 153.496,142.151 153.864,142.740 154.169 C 143.329 154.473,144.708 154.845,145.805 154.995 C 146.902 155.144,148.836 155.612,150.102 156.033 C 151.367 156.455,152.987 156.808,153.702 156.818 C 154.416 156.827,155.720 157.106,156.600 157.437 C 158.077 157.992,159.311 158.255,166.893 159.628 C 173.302 160.789,177.967 156.260,176.715 150.091 C 176.332 148.201,172.236 143.620,170.916 143.605 C 170.649 143.602,170.109 143.279,169.716 142.886 C 169.322 142.494,168.190 141.644,167.200 140.997 C 166.210 140.351,164.860 139.405,164.200 138.894 C 163.540 138.384,162.589 137.659,162.088 137.283 C 160.905 136.397,155.203 130.695,154.317 129.512 C 153.941 129.011,153.216 128.060,152.706 127.400 C 151.877 126.329,150.720 124.562,149.299 122.200 C 148.208 120.386,146.000 115.677,145.997 115.158 C 145.996 114.851,145.637 114.060,145.200 113.400 C 144.763 112.740,144.404 111.789,144.403 111.287 C 144.401 110.785,144.108 109.705,143.751 108.887 C 141.816 104.456,140.579 89.514,141.745 84.653 C 142.069 83.304,142.457 81.122,142.608 79.804 C 142.758 78.486,143.223 76.739,143.641 75.920 C 144.058 75.102,144.400 74.107,144.400 73.710 C 144.400 73.313,144.732 72.361,145.139 71.594 C 145.545 70.827,146.006 69.674,146.163 69.032 C 146.321 68.389,146.798 67.420,147.225 66.878 C 147.651 66.336,148.000 65.584,148.000 65.208 C 148.000 64.832,148.360 64.198,148.800 63.800 C 149.240 63.402,149.603 62.879,149.607 62.638 C 149.615 62.200,151.788 58.812,152.319 58.412 C 152.726 58.105,155.200 54.882,155.200 54.658 C 155.200 54.490,158.446 51.258,160.600 49.282 C 163.743 46.398,168.461 43.120,172.200 41.222 C 173.080 40.775,174.070 40.256,174.400 40.068 C 175.927 39.197,178.713 38.008,179.800 37.764 C 180.460 37.615,181.720 37.179,182.600 36.795 C 183.480 36.411,185.280 35.966,186.600 35.808 C 187.920 35.649,189.360 35.312,189.800 35.060 C 191.642 34.001,207.928 33.963,210.000 35.011 " stroke="none" fill="#ac8cbc" fill-rule="evenodd"></path><path id="path3" d="M188.457 33.612 C 187.499 33.810,186.483 34.165,186.200 34.400 C 185.916 34.635,184.721 34.930,183.542 35.054 C 182.364 35.179,180.950 35.592,180.400 35.974 C 179.850 36.355,178.800 36.785,178.068 36.930 C 177.335 37.075,176.275 37.555,175.714 37.996 C 175.152 38.438,174.268 38.800,173.749 38.800 C 173.231 38.800,172.582 39.160,172.307 39.600 C 172.032 40.040,171.410 40.400,170.924 40.400 C 170.439 40.400,169.556 40.850,168.962 41.400 C 168.369 41.950,167.738 42.400,167.562 42.400 C 167.012 42.400,163.872 44.653,162.320 46.162 C 161.506 46.953,160.732 47.600,160.601 47.600 C 159.893 47.600,151.304 56.977,150.600 58.518 C 150.380 58.999,149.885 59.710,149.500 60.097 C 149.115 60.484,148.800 61.070,148.800 61.400 C 148.800 61.730,148.614 62.000,148.386 62.000 C 148.158 62.000,147.633 62.790,147.219 63.756 C 146.805 64.722,146.285 65.624,146.064 65.761 C 145.843 65.897,145.534 66.592,145.379 67.305 C 145.223 68.017,144.759 69.029,144.348 69.554 C 143.937 70.079,143.600 71.089,143.600 71.800 C 143.600 72.511,143.258 73.527,142.840 74.059 C 142.411 74.603,141.950 76.068,141.782 77.413 C 141.619 78.726,141.196 80.242,140.842 80.783 C 139.876 82.262,139.883 102.151,140.850 103.628 C 141.208 104.174,141.630 105.732,141.787 107.092 C 141.964 108.611,142.368 109.902,142.837 110.443 C 143.293 110.968,143.600 111.921,143.600 112.807 C 143.600 113.644,143.924 114.709,144.342 115.246 C 144.750 115.771,145.207 116.870,145.358 117.689 C 145.509 118.508,145.869 119.318,146.160 119.489 C 146.450 119.660,146.901 120.459,147.163 121.265 C 147.425 122.070,147.900 122.830,148.219 122.952 C 148.539 123.075,148.800 123.525,148.800 123.953 C 148.800 124.382,149.158 125.152,149.596 125.666 C 150.035 126.180,150.938 127.320,151.605 128.200 C 153.685 130.947,155.354 132.925,156.600 134.119 C 159.326 136.733,160.296 137.600,160.492 137.600 C 160.606 137.600,161.487 138.321,162.449 139.203 C 163.412 140.085,164.515 140.907,164.900 141.030 C 165.285 141.153,165.600 141.400,165.600 141.578 C 165.600 141.757,166.185 142.141,166.900 142.431 C 167.615 142.722,168.435 143.284,168.723 143.680 C 169.010 144.076,169.474 144.400,169.753 144.400 C 170.032 144.400,170.683 144.850,171.200 145.400 C 171.717 145.950,172.340 146.400,172.584 146.400 C 175.153 146.400,176.542 153.197,174.558 156.060 C 173.063 158.218,163.380 158.858,160.526 156.988 C 160.013 156.652,158.380 156.219,156.897 156.025 C 155.414 155.832,153.570 155.410,152.800 155.087 C 152.030 154.765,150.251 154.377,148.846 154.225 C 147.442 154.073,145.867 153.669,145.346 153.328 C 144.826 152.987,143.185 152.617,141.700 152.505 C 140.191 152.392,138.470 151.993,137.800 151.600 C 137.138 151.212,135.418 150.809,133.964 150.700 C 132.514 150.591,130.882 150.210,130.336 149.853 C 129.791 149.495,128.187 149.091,126.772 148.954 C 125.358 148.817,123.770 148.436,123.244 148.107 C 122.719 147.778,120.978 147.346,119.376 147.147 C 117.774 146.948,115.954 146.520,115.332 146.195 C 113.777 145.384,106.116 145.363,104.969 146.167 C 104.523 146.479,103.448 146.862,102.580 147.019 C 100.986 147.306,97.200 149.452,97.200 150.067 C 97.200 150.250,96.967 150.400,96.682 150.400 C 96.128 150.400,92.000 154.328,92.000 154.855 C 92.000 155.028,91.662 155.491,91.250 155.884 C 90.837 156.278,90.362 157.050,90.195 157.600 C 90.027 158.150,89.555 159.029,89.145 159.554 C 88.730 160.085,88.400 161.152,88.400 161.960 C 88.400 162.758,88.067 164.039,87.659 164.806 C 87.252 165.573,86.818 167.338,86.695 168.730 C 86.570 170.133,86.201 171.558,85.865 171.930 C 85.533 172.298,85.134 173.770,84.980 175.200 C 84.825 176.630,84.451 178.407,84.149 179.149 C 83.479 180.796,83.421 185.661,84.065 186.305 C 84.321 186.561,84.668 187.786,84.836 189.029 C 85.037 190.505,85.430 191.554,85.971 192.059 C 86.427 192.484,86.801 193.229,86.802 193.716 C 86.804 194.727,89.357 197.807,92.269 200.309 C 94.449 202.183,94.740 202.391,95.885 202.886 C 96.498 203.151,97.429 203.690,97.954 204.084 C 98.511 204.502,99.595 204.800,100.560 204.800 C 101.468 204.800,102.872 205.154,103.678 205.586 C 104.485 206.018,106.372 206.495,107.873 206.646 C 109.373 206.797,111.227 207.253,111.994 207.660 C 112.912 208.147,114.223 208.400,115.832 208.400 C 117.714 208.400,118.432 208.573,118.955 209.150 C 119.438 209.684,120.465 209.981,122.517 210.182 C 124.103 210.337,125.686 210.721,126.035 211.035 C 126.384 211.349,127.966 211.768,129.551 211.967 C 131.136 212.166,132.689 212.542,133.002 212.802 C 133.315 213.061,134.952 213.445,136.640 213.655 C 138.328 213.865,140.254 214.318,140.920 214.662 C 141.585 215.006,143.226 215.380,144.565 215.493 C 145.904 215.607,147.561 216.037,148.247 216.450 C 148.933 216.862,150.023 217.200,150.670 217.200 C 151.316 217.200,152.455 217.650,153.200 218.200 C 153.945 218.750,154.794 219.200,155.087 219.200 C 155.869 219.200,159.600 223.254,159.600 224.103 C 159.600 224.504,159.960 225.538,160.400 226.400 C 160.902 227.385,161.200 228.758,161.200 230.090 C 161.200 231.448,160.912 232.749,160.400 233.704 C 159.960 234.525,159.600 235.621,159.600 236.140 C 159.600 236.659,159.195 237.546,158.700 238.111 C 158.205 238.676,157.350 239.787,156.800 240.579 C 156.250 241.371,155.440 242.447,155.000 242.971 C 154.560 243.494,153.840 244.383,153.400 244.945 C 152.960 245.508,151.836 246.830,150.902 247.884 C 149.968 248.938,149.203 249.912,149.202 250.049 C 149.200 250.346,145.413 255.128,144.464 256.033 C 144.099 256.381,143.350 257.268,142.800 258.004 C 142.250 258.740,141.395 259.831,140.900 260.429 C 140.405 261.027,140.000 261.639,140.000 261.789 C 140.000 261.940,139.216 262.885,138.258 263.889 C 135.721 266.549,135.313 267.038,134.775 268.070 C 134.282 269.013,133.723 269.703,132.100 271.368 C 131.605 271.876,131.200 272.415,131.200 272.566 C 131.200 272.716,130.545 273.506,129.745 274.320 C 128.945 275.134,127.993 276.280,127.630 276.867 C 126.960 277.949,125.114 280.256,123.089 282.544 C 121.131 284.756,120.965 284.966,119.571 287.000 C 118.817 288.100,117.885 289.235,117.500 289.523 C 117.115 289.810,116.800 290.205,116.800 290.399 C 116.800 290.594,116.035 291.565,115.100 292.557 C 113.021 294.762,111.600 296.604,111.600 297.091 C 111.600 297.292,111.195 297.824,110.700 298.274 C 109.600 299.274,106.728 302.635,106.255 303.476 C 106.065 303.814,105.570 304.430,105.155 304.845 C 104.740 305.260,104.400 305.842,104.400 306.138 C 104.400 306.434,104.062 306.982,103.650 307.355 C 103.237 307.729,102.795 308.679,102.667 309.467 C 102.539 310.255,102.112 311.256,101.717 311.692 C 100.513 313.023,100.657 323.784,101.900 325.364 C 102.395 325.993,102.800 326.906,102.800 327.392 C 102.800 327.878,103.160 328.602,103.600 329.000 C 104.040 329.398,104.400 329.909,104.400 330.134 C 104.400 331.009,107.041 334.313,108.777 335.609 C 109.779 336.358,110.870 337.199,111.200 337.478 C 111.530 337.757,112.340 338.429,113.000 338.972 C 115.117 340.714,116.156 341.604,118.200 343.423 C 119.300 344.402,120.605 345.312,121.100 345.445 C 121.595 345.578,122.000 345.817,122.000 345.976 C 122.000 346.461,125.861 348.800,126.662 348.800 C 127.074 348.800,128.102 349.170,128.945 349.622 C 130.885 350.661,138.409 350.799,140.519 349.833 C 141.223 349.511,142.544 349.055,143.453 348.821 C 144.363 348.586,145.330 348.126,145.602 347.797 C 145.875 347.469,146.317 347.200,146.586 347.200 C 147.385 347.200,153.600 341.462,153.600 340.724 C 153.600 340.561,154.270 339.756,155.090 338.937 C 156.385 337.642,159.179 334.292,161.488 331.267 C 162.799 329.549,163.789 328.359,165.263 326.732 C 166.067 325.843,167.417 324.105,168.263 322.869 C 169.108 321.634,170.449 319.988,171.242 319.211 C 172.036 318.435,173.620 316.540,174.762 315.000 C 176.655 312.449,177.949 310.865,180.800 307.612 C 182.172 306.046,183.220 304.708,184.400 303.012 C 184.950 302.223,186.210 300.704,187.200 299.638 C 188.190 298.573,189.540 297.031,190.200 296.212 C 194.327 291.092,195.782 290.200,200.000 290.200 C 204.218 290.200,205.673 291.092,209.800 296.212 C 210.460 297.031,211.810 298.573,212.800 299.638 C 213.790 300.704,215.050 302.223,215.600 303.012 C 216.802 304.739,217.858 306.084,219.200 307.600 C 221.844 310.585,223.349 312.427,225.248 315.000 C 226.385 316.540,227.964 318.435,228.758 319.211 C 229.551 319.988,230.892 321.634,231.737 322.869 C 232.583 324.105,233.933 325.843,234.737 326.732 C 236.211 328.359,237.201 329.549,238.512 331.267 C 240.821 334.292,243.615 337.642,244.910 338.937 C 245.730 339.756,246.400 340.561,246.400 340.724 C 246.400 341.462,252.615 347.200,253.414 347.200 C 253.683 347.200,254.125 347.469,254.398 347.797 C 254.670 348.126,255.637 348.586,256.547 348.821 C 257.456 349.055,258.777 349.511,259.481 349.833 C 261.591 350.799,269.115 350.661,271.055 349.622 C 271.898 349.170,272.926 348.800,273.338 348.800 C 274.139 348.800,278.000 346.461,278.000 345.976 C 278.000 345.817,278.405 345.578,278.900 345.445 C 279.707 345.229,282.367 343.094,284.642 340.836 C 285.105 340.376,285.625 340.000,285.796 340.000 C 285.968 340.000,286.524 339.595,287.032 339.100 C 288.310 337.855,289.112 337.186,291.223 335.609 C 292.959 334.313,295.600 331.009,295.600 330.134 C 295.600 329.909,295.960 329.398,296.400 329.000 C 296.840 328.602,297.200 327.878,297.200 327.392 C 297.200 326.906,297.605 325.993,298.100 325.364 C 299.343 323.784,299.487 313.023,298.283 311.692 C 297.888 311.256,297.461 310.255,297.333 309.467 C 297.205 308.679,296.763 307.729,296.350 307.355 C 295.938 306.982,295.600 306.434,295.600 306.138 C 295.600 305.842,295.260 305.260,294.845 304.845 C 294.430 304.430,293.935 303.814,293.745 303.476 C 293.272 302.635,290.400 299.274,289.300 298.274 C 288.805 297.824,288.400 297.292,288.400 297.091 C 288.400 296.604,286.979 294.762,284.900 292.557 C 283.965 291.565,283.200 290.594,283.200 290.399 C 283.200 290.205,282.885 289.810,282.500 289.523 C 282.115 289.235,281.183 288.100,280.429 287.000 C 279.035 284.966,278.869 284.756,276.911 282.544 C 274.886 280.256,273.040 277.949,272.370 276.867 C 272.007 276.280,271.055 275.134,270.255 274.320 C 269.455 273.506,268.800 272.716,268.800 272.566 C 268.800 272.415,268.395 271.876,267.900 271.368 C 266.277 269.703,265.718 269.013,265.225 268.070 C 264.687 267.038,264.279 266.549,261.742 263.889 C 260.784 262.885,260.000 261.940,260.000 261.789 C 260.000 261.639,259.595 261.027,259.100 260.429 C 258.605 259.831,257.750 258.740,257.200 258.004 C 256.650 257.268,255.901 256.381,255.536 256.033 C 254.587 255.128,250.800 250.346,250.798 250.049 C 250.797 249.912,250.032 248.938,249.098 247.884 C 248.164 246.830,247.040 245.508,246.600 244.945 C 246.160 244.383,245.440 243.494,245.000 242.971 C 244.560 242.447,243.750 241.371,243.200 240.579 C 242.650 239.787,241.795 238.676,241.300 238.111 C 240.805 237.546,240.400 236.659,240.400 236.140 C 240.400 235.621,240.040 234.525,239.600 233.704 C 239.088 232.749,238.800 231.448,238.800 230.090 C 238.800 228.758,239.098 227.385,239.600 226.400 C 240.040 225.538,240.400 224.504,240.400 224.103 C 240.400 223.254,244.131 219.200,244.913 219.200 C 245.206 219.200,246.055 218.750,246.800 218.200 C 247.545 217.650,248.684 217.200,249.330 217.200 C 249.977 217.200,251.067 216.862,251.753 216.450 C 252.439 216.037,254.096 215.607,255.435 215.493 C 256.774 215.380,258.415 215.006,259.080 214.662 C 259.746 214.318,261.672 213.865,263.360 213.655 C 265.048 213.445,266.685 213.061,266.998 212.802 C 267.311 212.542,268.864 212.166,270.449 211.967 C 272.034 211.768,273.616 211.349,273.965 211.035 C 274.314 210.721,275.897 210.337,277.483 210.182 C 279.535 209.981,280.562 209.684,281.045 209.150 C 281.568 208.573,282.286 208.400,284.168 208.400 C 285.777 208.400,287.088 208.147,288.006 207.660 C 288.773 207.253,290.627 206.797,292.127 206.646 C 293.628 206.495,295.515 206.018,296.322 205.586 C 297.128 205.154,298.532 204.800,299.440 204.800 C 300.405 204.800,301.489 204.502,302.046 204.084 C 302.571 203.690,303.502 203.151,304.115 202.886 C 305.260 202.391,305.551 202.183,307.731 200.309 C 310.643 197.807,313.196 194.727,313.198 193.716 C 313.199 193.229,313.573 192.484,314.029 192.059 C 314.570 191.554,314.963 190.505,315.164 189.029 C 315.332 187.786,315.679 186.561,315.935 186.305 C 316.588 185.652,316.516 180.951,315.823 179.013 C 315.506 178.126,315.133 176.365,314.995 175.100 C 314.856 173.835,314.479 172.536,314.158 172.215 C 313.824 171.881,313.466 170.462,313.325 168.915 C 313.190 167.422,312.746 165.573,312.339 164.806 C 311.933 164.039,311.600 162.758,311.600 161.960 C 311.600 161.152,311.270 160.085,310.855 159.554 C 310.445 159.029,309.973 158.150,309.805 157.600 C 309.638 157.050,309.163 156.278,308.750 155.884 C 308.338 155.491,308.000 155.028,308.000 154.855 C 308.000 154.328,303.872 150.400,303.318 150.400 C 303.033 150.400,302.800 150.250,302.800 150.067 C 302.800 149.452,299.014 147.306,297.420 147.019 C 296.552 146.862,295.477 146.479,295.031 146.167 C 293.884 145.363,286.223 145.384,284.668 146.195 C 284.046 146.520,282.226 146.948,280.624 147.147 C 279.022 147.346,277.281 147.778,276.756 148.107 C 276.230 148.436,274.642 148.817,273.228 148.954 C 271.813 149.091,270.209 149.495,269.664 149.853 C 269.118 150.210,267.486 150.591,266.036 150.700 C 264.582 150.809,262.862 151.212,262.200 151.600 C 261.530 151.993,259.809 152.392,258.300 152.505 C 256.815 152.617,255.174 152.987,254.654 153.328 C 254.133 153.669,252.558 154.073,251.154 154.225 C 249.749 154.377,247.970 154.765,247.200 155.087 C 246.430 155.410,244.586 155.832,243.103 156.025 C 241.620 156.219,239.987 156.652,239.474 156.988 C 236.620 158.858,226.937 158.218,225.442 156.060 C 223.458 153.197,224.847 146.400,227.416 146.400 C 227.660 146.400,228.283 145.950,228.800 145.400 C 229.317 144.850,229.968 144.400,230.247 144.400 C 230.526 144.400,230.990 144.076,231.277 143.680 C 231.565 143.284,232.385 142.722,233.100 142.431 C 233.815 142.141,234.400 141.757,234.400 141.578 C 234.400 141.400,234.715 141.153,235.100 141.030 C 235.485 140.907,236.588 140.085,237.551 139.203 C 238.513 138.321,239.394 137.600,239.508 137.600 C 239.704 137.600,240.674 136.733,243.400 134.119 C 244.646 132.925,246.315 130.947,248.395 128.200 C 249.062 127.320,249.965 126.180,250.404 125.666 C 250.842 125.152,251.200 124.382,251.200 123.953 C 251.200 123.525,251.461 123.075,251.781 122.952 C 252.100 122.830,252.575 122.070,252.837 121.265 C 253.099 120.459,253.550 119.660,253.840 119.489 C 254.131 119.318,254.491 118.508,254.642 117.689 C 254.793 116.870,255.250 115.771,255.658 115.246 C 256.076 114.709,256.400 113.644,256.400 112.807 C 256.400 111.921,256.707 110.968,257.163 110.443 C 257.638 109.895,258.029 108.627,258.201 107.082 C 258.352 105.717,258.774 104.150,259.138 103.600 C 260.117 102.122,260.134 82.276,259.158 80.783 C 258.804 80.242,258.381 78.726,258.218 77.413 C 258.050 76.068,257.589 74.603,257.160 74.059 C 256.742 73.527,256.400 72.511,256.400 71.800 C 256.400 71.089,256.063 70.079,255.652 69.554 C 255.241 69.029,254.777 68.017,254.621 67.305 C 254.466 66.592,254.157 65.897,253.936 65.761 C 253.715 65.624,253.195 64.722,252.781 63.756 C 252.367 62.790,251.842 62.000,251.614 62.000 C 251.386 62.000,251.200 61.730,251.200 61.400 C 251.200 61.070,250.885 60.484,250.500 60.097 C 250.115 59.710,249.620 58.999,249.400 58.518 C 248.709 57.005,240.085 47.600,239.389 47.600 C 239.263 47.600,238.494 46.953,237.680 46.162 C 236.128 44.653,232.988 42.400,232.438 42.400 C 232.262 42.400,231.631 41.950,231.038 41.400 C 230.444 40.850,229.561 40.400,229.076 40.400 C 228.590 40.400,227.968 40.040,227.693 39.600 C 227.418 39.160,226.769 38.800,226.251 38.800 C 225.732 38.800,224.848 38.438,224.286 37.996 C 223.725 37.555,222.665 37.080,221.932 36.942 C 221.200 36.803,220.282 36.414,219.894 36.077 C 219.505 35.740,218.185 35.328,216.961 35.162 C 215.736 34.996,214.074 34.535,213.267 34.137 C 211.604 33.316,191.894 32.899,188.457 33.612 M211.400 34.374 C 212.060 34.645,213.770 35.115,215.200 35.417 C 218.423 36.098,222.698 37.603,223.999 38.514 C 224.537 38.891,225.258 39.200,225.600 39.200 C 225.942 39.200,226.642 39.494,227.155 39.854 C 227.668 40.213,229.103 41.048,230.344 41.709 C 236.731 45.111,245.344 53.278,249.893 60.245 C 250.164 60.660,250.794 61.630,251.293 62.400 C 251.793 63.170,252.708 64.880,253.326 66.200 C 253.945 67.520,254.800 69.266,255.226 70.079 C 255.652 70.893,256.000 71.890,256.000 72.295 C 256.000 72.700,256.339 73.696,256.754 74.509 C 257.168 75.322,257.628 76.845,257.775 77.894 C 257.922 78.942,258.348 80.700,258.721 81.800 C 259.702 84.689,259.707 99.188,258.728 102.400 C 258.360 103.610,257.934 105.500,257.782 106.600 C 257.630 107.700,257.167 109.161,256.753 109.847 C 256.339 110.533,256.000 111.624,256.000 112.271 C 256.000 112.918,255.733 113.796,255.406 114.224 C 255.080 114.651,254.613 115.720,254.369 116.600 C 254.125 117.480,253.694 118.470,253.410 118.800 C 253.127 119.130,252.758 119.847,252.591 120.392 C 252.424 120.938,251.981 121.838,251.606 122.392 C 251.232 122.947,250.406 124.210,249.771 125.200 C 246.044 131.010,239.550 137.468,233.053 141.826 C 231.762 142.692,229.733 144.054,228.545 144.854 C 223.828 148.030,222.377 152.941,225.100 156.515 C 227.065 159.094,233.380 159.367,241.304 157.217 C 245.508 156.076,249.005 155.245,252.282 154.608 C 253.867 154.300,255.513 153.861,255.940 153.632 C 256.367 153.404,257.770 153.098,259.058 152.952 C 260.346 152.806,262.262 152.352,263.315 151.943 C 264.368 151.534,265.634 151.200,266.128 151.200 C 266.622 151.200,268.010 150.919,269.213 150.575 C 270.416 150.232,272.656 149.688,274.192 149.367 C 275.727 149.046,277.887 148.521,278.992 148.200 C 281.021 147.612,286.703 146.428,289.104 146.093 C 293.058 145.542,300.707 148.512,304.673 152.136 C 307.717 154.918,311.200 160.524,311.200 162.642 C 311.200 163.152,311.536 164.432,311.948 165.485 C 312.359 166.538,312.827 168.480,312.989 169.800 C 313.150 171.119,313.514 172.649,313.798 173.200 C 315.907 177.296,315.738 187.686,313.491 192.000 C 310.098 198.515,303.037 204.400,298.612 204.400 C 298.042 204.400,296.534 204.751,295.261 205.179 C 293.989 205.608,291.879 206.134,290.574 206.349 C 289.268 206.564,287.531 207.023,286.713 207.370 C 285.895 207.716,284.490 208.000,283.591 208.000 C 282.692 208.000,281.201 208.340,280.278 208.756 C 279.355 209.172,277.610 209.643,276.400 209.803 C 275.190 209.963,273.750 210.321,273.200 210.599 C 272.650 210.877,270.867 211.327,269.237 211.599 C 267.607 211.871,265.717 212.320,265.037 212.598 C 264.357 212.875,262.900 213.224,261.800 213.373 C 260.700 213.522,258.764 213.995,257.498 214.422 C 256.233 214.850,254.613 215.204,253.898 215.209 C 253.184 215.214,251.815 215.574,250.856 216.009 C 249.897 216.444,248.906 216.800,248.653 216.800 C 246.935 216.800,240.000 222.124,240.000 223.443 C 240.000 223.701,239.644 224.697,239.209 225.656 C 238.111 228.075,238.107 232.465,239.200 234.504 C 239.640 235.325,240.000 236.287,240.000 236.641 C 240.000 236.995,240.405 237.793,240.900 238.415 C 241.395 239.036,242.250 240.192,242.800 240.982 C 243.350 241.772,244.160 242.856,244.600 243.391 C 245.040 243.926,245.795 244.867,246.279 245.482 C 247.197 246.650,250.528 250.796,259.709 262.200 C 262.720 265.940,265.502 269.430,265.892 269.956 C 266.281 270.482,266.975 271.292,267.433 271.756 C 267.891 272.220,269.811 274.580,271.700 277.000 C 273.588 279.420,275.601 281.940,276.173 282.600 C 276.745 283.260,279.725 286.950,282.796 290.800 C 285.867 294.650,288.925 298.445,289.591 299.233 C 292.311 302.448,295.751 307.213,296.354 308.600 C 300.863 318.970,298.440 329.305,289.972 335.822 C 288.637 336.849,287.063 338.122,286.473 338.652 C 285.883 339.182,285.040 339.940,284.600 340.337 C 275.505 348.545,268.100 351.201,260.014 349.156 C 254.784 347.833,250.747 345.253,247.392 341.090 C 246.545 340.039,245.242 338.509,244.497 337.690 C 243.751 336.870,242.666 335.570,242.084 334.800 C 240.451 332.637,235.889 327.047,235.392 326.600 C 235.148 326.380,233.932 324.850,232.690 323.200 C 231.448 321.550,229.853 319.570,229.146 318.800 C 228.438 318.030,226.954 316.230,225.847 314.800 C 224.741 313.370,223.001 311.210,221.982 310.000 C 220.963 308.790,219.844 307.440,219.495 307.000 C 206.948 291.153,205.059 289.453,200.000 289.453 C 194.941 289.453,193.052 291.153,180.505 307.000 C 180.156 307.440,179.037 308.790,178.018 310.000 C 176.999 311.210,175.259 313.370,174.153 314.800 C 173.046 316.230,171.562 318.030,170.854 318.800 C 170.147 319.570,168.546 321.550,167.296 323.200 C 166.047 324.850,164.193 327.128,163.176 328.263 C 162.159 329.398,160.321 331.648,159.091 333.263 C 157.862 334.878,156.246 336.870,155.502 337.690 C 154.757 338.509,153.455 340.039,152.608 341.090 C 145.648 349.727,133.520 352.360,124.600 347.170 C 122.878 346.168,116.761 341.593,115.322 340.231 C 113.820 338.808,113.085 338.193,110.276 336.008 C 101.514 329.192,99.076 319.111,103.646 308.600 C 104.248 307.216,107.673 302.470,110.407 299.233 C 112.875 296.309,124.687 281.647,128.156 277.200 C 130.129 274.670,132.117 272.220,132.572 271.756 C 133.027 271.292,133.719 270.482,134.108 269.956 C 134.498 269.430,137.280 265.940,140.291 262.200 C 149.472 250.796,152.803 246.650,153.721 245.482 C 154.205 244.867,154.960 243.926,155.400 243.391 C 155.840 242.856,156.650 241.772,157.200 240.982 C 157.750 240.192,158.605 239.036,159.100 238.415 C 159.595 237.793,160.000 236.995,160.000 236.641 C 160.000 236.287,160.360 235.325,160.800 234.504 C 161.893 232.465,161.889 228.075,160.791 225.656 C 160.356 224.697,160.000 223.701,160.000 223.443 C 160.000 222.124,153.065 216.800,151.347 216.800 C 151.094 216.800,150.103 216.444,149.144 216.009 C 148.185 215.574,146.816 215.214,146.102 215.209 C 145.387 215.204,143.767 214.850,142.502 214.422 C 141.236 213.995,139.300 213.522,138.200 213.373 C 137.100 213.224,135.643 212.875,134.963 212.598 C 134.283 212.320,132.393 211.871,130.763 211.599 C 129.133 211.327,127.350 210.877,126.800 210.599 C 126.250 210.321,124.810 209.963,123.600 209.803 C 122.390 209.643,120.645 209.172,119.722 208.756 C 118.799 208.340,117.308 208.000,116.409 208.000 C 115.510 208.000,114.105 207.716,113.287 207.370 C 112.469 207.023,110.732 206.564,109.426 206.349 C 108.121 206.134,106.011 205.608,104.739 205.179 C 103.466 204.751,101.958 204.400,101.388 204.400 C 99.273 204.400,94.269 201.579,91.245 198.682 C 84.935 192.637,82.726 181.376,86.213 173.031 C 86.511 172.318,86.880 170.759,87.033 169.567 C 87.186 168.375,87.646 166.538,88.056 165.485 C 88.465 164.432,88.800 163.152,88.800 162.642 C 88.800 160.524,92.283 154.918,95.327 152.136 C 99.293 148.512,106.942 145.542,110.896 146.093 C 113.297 146.428,118.979 147.612,121.008 148.200 C 122.113 148.521,124.273 149.046,125.808 149.367 C 127.344 149.688,129.584 150.232,130.787 150.575 C 131.990 150.919,133.378 151.200,133.872 151.200 C 134.366 151.200,135.632 151.534,136.685 151.943 C 137.738 152.352,139.654 152.806,140.942 152.952 C 142.230 153.098,143.633 153.404,144.060 153.632 C 144.487 153.861,146.133 154.300,147.718 154.608 C 150.995 155.245,154.492 156.076,158.696 157.217 C 166.620 159.367,172.935 159.094,174.900 156.515 C 177.623 152.941,176.172 148.030,171.455 144.854 C 170.267 144.054,168.238 142.692,166.947 141.826 C 160.450 137.468,153.956 131.010,150.229 125.200 C 149.594 124.210,148.768 122.947,148.394 122.392 C 148.019 121.838,147.576 120.938,147.409 120.392 C 147.242 119.847,146.873 119.130,146.590 118.800 C 146.306 118.470,145.875 117.480,145.631 116.600 C 145.387 115.720,144.920 114.651,144.594 114.224 C 144.267 113.796,144.000 112.918,144.000 112.271 C 144.000 111.624,143.661 110.533,143.247 109.847 C 142.833 109.161,142.370 107.700,142.218 106.600 C 142.066 105.500,141.640 103.610,141.272 102.400 C 140.293 99.188,140.298 84.689,141.279 81.800 C 141.652 80.700,142.078 78.942,142.225 77.894 C 142.372 76.845,142.832 75.322,143.246 74.509 C 143.661 73.696,144.000 72.700,144.000 72.295 C 144.000 71.890,144.348 70.893,144.774 70.079 C 145.200 69.266,146.055 67.520,146.674 66.200 C 147.292 64.880,148.207 63.170,148.707 62.400 C 149.206 61.630,149.836 60.660,150.107 60.245 C 154.656 53.278,163.269 45.111,169.656 41.709 C 170.897 41.048,172.332 40.213,172.845 39.854 C 173.358 39.494,174.058 39.200,174.400 39.200 C 174.742 39.200,175.463 38.891,176.001 38.514 C 177.326 37.586,181.606 36.091,184.908 35.402 C 186.398 35.091,187.811 34.717,188.049 34.570 C 189.690 33.556,209.020 33.393,211.400 34.374 " stroke="none" fill="#9460a3" fill-rule="evenodd"></path><path id="path4" d="M193.305 33.887 C 193.914 33.979,194.814 33.977,195.305 33.882 C 195.797 33.787,195.300 33.711,194.200 33.714 C 193.100 33.717,192.697 33.795,193.305 33.887 M204.905 33.887 C 205.514 33.979,206.414 33.977,206.905 33.882 C 207.397 33.787,206.900 33.711,205.800 33.714 C 204.700 33.717,204.297 33.795,204.905 33.887 M166.200 43.850 C 165.481 44.462,165.334 44.705,165.833 44.457 C 166.566 44.093,167.941 42.776,167.549 42.814 C 167.467 42.822,166.860 43.288,166.200 43.850 M232.767 43.345 C 233.300 44.001,234.800 44.993,234.800 44.689 C 234.800 44.613,234.215 44.122,233.500 43.599 C 232.696 43.010,232.416 42.913,232.767 43.345 M259.301 87.400 C 259.305 88.280,259.387 88.593,259.483 88.095 C 259.579 87.598,259.575 86.878,259.475 86.495 C 259.375 86.113,259.296 86.520,259.301 87.400 M259.293 96.800 C 259.293 97.570,259.375 97.885,259.476 97.500 C 259.576 97.115,259.576 96.485,259.476 96.100 C 259.375 95.715,259.293 96.030,259.293 96.800 M109.305 146.287 C 109.914 146.379,110.814 146.377,111.305 146.282 C 111.797 146.187,111.300 146.111,110.200 146.114 C 109.100 146.117,108.697 146.195,109.305 146.287 M288.905 146.287 C 289.514 146.379,290.414 146.377,290.905 146.282 C 291.397 146.187,290.900 146.111,289.800 146.114 C 288.700 146.117,288.297 146.195,288.905 146.287 M176.109 152.000 C 176.109 152.990,176.187 153.395,176.282 152.900 C 176.378 152.405,176.378 151.595,176.282 151.100 C 176.187 150.605,176.109 151.010,176.109 152.000 M223.709 152.000 C 223.709 152.990,223.787 153.395,223.882 152.900 C 223.978 152.405,223.978 151.595,223.882 151.100 C 223.787 150.605,223.709 151.010,223.709 152.000 M84.514 183.000 C 84.517 184.100,84.595 184.503,84.687 183.895 C 84.779 183.286,84.777 182.386,84.682 181.895 C 84.587 181.403,84.511 181.900,84.514 183.000 M315.314 183.000 C 315.317 184.100,315.395 184.503,315.487 183.895 C 315.579 183.286,315.577 182.386,315.482 181.895 C 315.387 181.403,315.311 181.900,315.314 183.000 M101.331 318.200 C 101.333 319.740,101.405 320.321,101.492 319.491 C 101.579 318.661,101.577 317.401,101.489 316.691 C 101.400 315.981,101.329 316.660,101.331 318.200 M298.531 318.200 C 298.533 319.740,298.605 320.321,298.692 319.491 C 298.779 318.661,298.777 317.401,298.689 316.691 C 298.600 315.981,298.529 316.660,298.531 318.200 M107.600 333.800 C 108.346 334.570,109.047 335.200,109.157 335.200 C 109.267 335.200,108.746 334.570,108.000 333.800 C 107.254 333.030,106.553 332.400,106.443 332.400 C 106.333 332.400,106.854 333.030,107.600 333.800 M291.978 333.900 L 290.600 335.400 292.100 334.022 C 292.925 333.263,293.600 332.588,293.600 332.522 C 293.600 332.216,293.262 332.504,291.978 333.900 M135.100 349.882 C 135.595 349.978,136.405 349.978,136.900 349.882 C 137.395 349.787,136.990 349.709,136.000 349.709 C 135.010 349.709,134.605 349.787,135.100 349.882 M263.100 349.882 C 263.595 349.978,264.405 349.978,264.900 349.882 C 265.395 349.787,264.990 349.709,264.000 349.709 C 263.010 349.709,262.605 349.787,263.100 349.882 " stroke="none" fill="#ac84b4" fill-rule="evenodd"></path></g></svg>